<svg width="161" height="43" viewBox="0 0 161 43" fill="none" xmlns="http://www.w3.org/2000/svg">
<g clip-path="url(#clip0_654_649)">
<path d="M42.9629 25.4729V36.3474H46.3867V31.1793H58.2231V27.7554H46.3867V26.5112C46.3867 26.2053 46.6338 25.9582 46.9397 25.9582H58.2261V22.5344H45.9014C44.2807 22.5344 42.9658 23.8492 42.9658 25.4699L42.9629 25.4729Z" fill="black"/>
<path d="M64.8267 22.5403H61.4028V36.3504H64.8267V22.5403Z" fill="black"/>
<path d="M67.521 25.9612H73.2156V36.3474H73.2421H76.6395H76.666V25.9612H82.1694V22.5403H67.521V25.9612Z" fill="black"/>
<path d="M105.563 7.67127H111.069V4.25037H96.4207V7.67127H102.115V18.0722H102.139H105.563V7.67127Z" fill="black"/>
<path d="M74.704 18.2222C75.1688 18.2222 75.6365 18.1075 76.0718 17.8722C77.016 17.3604 77.5573 16.325 77.5573 15.2543V4.25036H74.1334V13.8571L66.3356 5.05926L66.265 4.98278C65.2473 3.96504 63.606 3.83856 62.4117 4.81512C61.7411 5.36223 61.4028 6.21819 61.4028 7.08298V18.0722H64.8267V8.51252L72.695 17.3869C73.2421 17.934 73.9657 18.2222 74.707 18.2222H74.704Z" fill="black"/>
<path d="M97.5768 32.1793L89.779 23.3815L89.7084 23.305C88.8407 22.4373 87.5229 22.2167 86.411 22.7755C85.4315 23.2668 84.8433 24.2992 84.8433 25.3934V36.3474H88.2671V26.8347L96.1355 35.7091C96.6826 36.2562 97.4062 36.5445 98.1474 36.5445C98.6416 36.5445 99.1416 36.415 99.6005 36.1474C100.486 35.6297 101.001 34.6502 101.001 33.6236V22.5726H97.5768V32.1793Z" fill="black"/>
<path d="M134.721 27.7378H126.671C126.188 27.7378 125.8 27.3466 125.8 26.8671C125.8 26.3877 126.2 25.973 126.694 25.973H138.345V22.5403H126.712C124.338 22.5403 122.394 24.4846 122.394 26.8583V26.8789C122.394 29.2468 124.315 31.1675 126.682 31.1675H134.736C135.23 31.1675 135.63 31.5676 135.63 32.0617C135.63 32.5559 135.239 32.9383 134.754 32.9383H122.979V36.3621H134.727C137.107 36.3621 139.036 34.4325 139.036 32.0529C139.036 29.6792 137.095 27.7378 134.721 27.7378Z" fill="black"/>
<path d="M144.896 18.0722H157.297V14.6483H145.934C145.628 14.6483 145.381 14.4013 145.381 14.0953V12.8688H157.294V9.44492H145.381V8.22128C145.381 7.91537 145.628 7.66829 145.934 7.66829H157.297V4.24445H144.896C143.275 4.24445 141.96 5.55927 141.96 7.18001V15.1337C141.96 16.7544 143.275 18.0692 144.896 18.0692V18.0722Z" fill="black"/>
<path d="M160.327 34.9149C160.327 34.6502 160.124 34.4943 159.818 34.4943H159.229V35.815H159.48V35.359H159.756L160.077 35.815H160.377L160.021 35.3149C160.203 35.262 160.327 35.1296 160.327 34.9149ZM159.806 35.1384H159.48V34.7208H159.806C159.971 34.7208 160.068 34.7943 160.068 34.9296C160.068 35.059 159.971 35.1384 159.806 35.1384Z" fill="black"/>
<path d="M159.741 33.9296C159.032 33.9296 158.476 34.5061 158.476 35.1944C158.476 35.8827 159.026 36.4533 159.735 36.4533C160.444 36.4533 161 35.8768 161 35.1885C161 34.5002 160.45 33.9296 159.741 33.9296ZM159.735 36.2004C159.165 36.2004 158.735 35.7503 158.735 35.1944C158.735 34.6385 159.168 34.1825 159.741 34.1825C160.315 34.1825 160.741 34.6326 160.741 35.1885C160.741 35.7444 160.309 36.2004 159.735 36.2004Z" fill="black"/>
<path d="M107.434 32.3853V31.1587L119.346 31.1645V27.7348H107.434V26.5112C107.434 26.2053 107.681 25.9582 107.987 25.9582L119.349 25.97V22.5373H106.948C105.328 22.5373 104.013 23.8521 104.013 25.4729V33.4265C104.013 35.0473 105.328 36.3621 106.948 36.3621H119.505V32.9382H107.987C107.681 32.9382 107.434 32.6912 107.434 32.3853Z" fill="black"/>
<path d="M116.755 4.25037H113.331V18.0722H116.755V4.25037Z" fill="black"/>
<path d="M137.648 4.24741C136.933 4.03857 136.133 4.14446 135.498 4.52979C134.704 5.01219 134.215 5.85638 133.762 6.66822C132.286 9.3067 130.812 11.9452 129.335 14.5837C127.8 11.8569 126.262 9.13021 124.726 6.40349C124.382 5.79167 124.023 5.1622 123.47 4.72393C122.888 4.26212 122.108 4.05328 121.37 4.16799C120.635 4.28271 119.952 4.7151 119.54 5.33575C118.961 6.20936 118.946 7.32711 118.949 8.3772C118.961 11.4216 118.976 15.0249 118.987 18.0693H122.394C122.397 15.1278 122.402 12.1776 122.405 9.2361C123.573 11.3245 124.738 13.413 125.906 15.5014C126.332 16.2662 126.779 17.0545 127.482 17.5751C128.538 18.3575 130.109 18.3605 131.168 17.578C131.544 17.2986 131.847 16.9427 132.115 16.5544C132.347 16.2191 132.55 15.8573 132.748 15.5014C133.915 13.413 135.08 11.3245 136.248 9.23316C136.251 12.1776 136.257 15.1219 136.26 18.0663C137.398 18.0663 138.536 18.0663 139.672 18.0663C139.675 14.7395 139.681 11.4039 139.683 8.07717C139.683 7.24475 139.678 6.37702 139.307 5.63283C138.975 4.96513 138.357 4.45037 137.642 4.24153L137.648 4.24741Z" fill="black"/>
<path d="M85.2757 18.0722H88.6966V11.8452L95.4237 4.25037H90.8527L86.9847 8.61253L83.1196 4.25037H78.5457L85.2757 11.8393V18.0722Z" fill="black"/>
<path d="M153.676 27.7378H145.625C145.143 27.7378 144.755 27.3466 144.755 26.8671C144.755 26.3877 145.155 25.973 145.649 25.973H157.3V22.5403H145.666C143.293 22.5403 141.348 24.4846 141.348 26.8583V26.8789C141.348 29.2468 143.269 31.1675 145.637 31.1675H153.691C154.185 31.1675 154.585 31.5676 154.585 32.0617C154.585 32.5559 154.194 32.9383 153.708 32.9383H141.934V36.3621H153.682C156.061 36.3621 157.991 34.4325 157.991 32.0529C157.991 29.6792 156.05 27.7378 153.676 27.7378Z" fill="black"/>
<path d="M56.5994 18.0722H60.4115L54.4463 5.85051C53.9315 4.8063 52.8697 4.14447 51.7049 4.14447H51.649C50.4842 4.14447 49.4194 4.8063 48.9076 5.85345L42.9629 18.0722H46.7721L48.1663 15.1249H53.1903L51.499 11.7069H49.8429L51.6755 7.97129L56.5965 18.0752L56.5994 18.0722Z" fill="black"/>
<path d="M32.4383 0.967718C31.2676 -0.202977 29.2321 -0.376522 28.1526 0.814763C28.1526 0.814763 21.0196 10.1068 19.1489 11.957C16.3839 14.6984 13.4483 16.8839 10.5304 18.484C10.1804 18.6752 9.76565 18.6811 9.48033 18.3987L5.18582 14.1307C3.52685 12.4717 1.60314 12.6041 0.635406 13.5718C-0.217613 14.4248 -0.376451 15.9897 1.19134 17.5575L7.45662 23.7875C8.50671 24.8375 10.1716 24.9993 11.4011 24.1993L11.5541 24.0963C13.4219 22.7432 16.4339 19.2547 18.4459 16.678C18.7929 16.2338 19.4165 16.1338 19.8666 16.4515C25.7554 20.5901 27.9879 22.2667 28.8233 22.9433C29.641 23.6051 29.9704 24.0169 29.9587 24.364C29.9381 25.0582 28.5085 26.1788 26.9702 27.2848C25.0729 28.6467 23.8522 29.5968 23.008 30.3675C21.8226 31.4852 21.3873 32.0529 21.1167 32.9559C20.9226 33.606 21.049 34.3561 21.149 34.6355C21.4403 35.4679 22.0933 36.1915 23.0639 36.7916L32.0559 42.0215C34.7297 43.4687 36.071 42.5951 36.8417 41.4391C37.5623 40.3566 37.8888 38.3358 35.4121 36.8328L28.9468 32.7677C28.2409 32.3441 28.5144 31.8705 28.6615 31.7088C28.988 31.3558 30.3734 30.0616 30.7146 29.7262C32.8884 27.5966 33.9384 25.7112 33.9267 23.9698C33.9149 22.1755 32.7589 20.8431 31.753 19.8842C30.7999 18.9752 29.8998 18.0899 28.5409 16.7545C27.4614 15.6926 26.0966 14.3513 24.1934 12.4952C23.9464 12.254 23.8111 11.9275 23.8258 11.601C23.8375 11.3098 23.9699 11.0451 24.1993 10.8598C24.9494 10.248 25.9112 9.38908 26.8437 8.56253C27.7967 7.71539 28.6968 6.91532 29.3321 6.40351C29.6498 6.1476 30.1146 6.16819 30.4087 6.45351L34.7091 10.6186C35.7474 11.6569 37.0417 12.0952 38.1741 11.7922C38.53 11.6981 38.8448 11.5334 39.1066 11.3157C39.4507 11.0275 39.7007 10.648 39.8184 10.2097C39.9684 9.64792 40.0243 8.50958 38.7036 7.19182L32.4383 0.967718Z" fill="#6E38D5"/>
<path d="M14.3514 11.5187C16.9197 11.5187 19.0018 9.43662 19.0018 6.86826C19.0018 4.2999 16.9197 2.21783 14.3514 2.21783C11.783 2.21783 9.70093 4.2999 9.70093 6.86826C9.70093 9.43662 11.783 11.5187 14.3514 11.5187Z" fill="#6E38D5"/>
</g>
<defs>
<clipPath id="clip0_654_649">
<rect width="161" height="42.7804" fill="white"/>
</clipPath>
</defs>
</svg>
