<svg width="179" height="72" viewBox="0 0 179 72" fill="none" xmlns="http://www.w3.org/2000/svg">
<path d="M128.936 29.3645H126.698L126.139 27.9794C125.3 29.0875 123.622 29.6415 121.664 29.6415H118.587C115.511 29.6415 114.112 28.5335 114.112 26.3173C114.112 25.7632 114.112 24.9321 114.392 24.1011L117.189 13.8512C117.748 11.912 118.587 10.5269 119.706 9.69583C120.825 8.86476 122.503 8.31071 124.461 8.31071H128.656C130.055 8.31071 131.173 8.58774 132.012 9.14179C132.852 9.69583 133.131 10.5269 133.131 11.635C133.131 12.189 133.131 12.7431 132.852 13.5742L132.572 15.2363H128.656L128.936 13.8512C128.936 13.5742 128.936 13.2971 128.936 12.7431C128.936 12.189 128.936 11.912 128.377 11.912C128.097 11.635 127.537 11.635 126.978 11.635H124.461C123.622 11.635 122.783 11.912 122.503 12.189C121.944 12.4661 121.664 13.2971 121.384 14.1282L118.587 23.547C118.587 24.1011 118.308 24.3781 118.308 24.9321C118.308 25.4862 118.308 25.7632 118.867 25.7632C119.147 26.0402 119.706 26.0402 120.266 26.0402H123.062C123.902 26.0402 124.741 25.7632 125.02 25.4862C125.58 25.2092 125.859 24.3781 126.139 23.547V22.993L126.698 21.3308H122.783L123.622 18.0065H131.453L128.936 29.3645Z" fill="black"/>
<path d="M140.683 8.3107C141.522 12.4661 142.081 15.7903 142.361 18.8376C144.598 15.7903 147.116 12.189 149.912 8.3107H154.667L143.48 22.7159L141.522 29.3645H137.606L139.844 22.4389L136.767 8.3107H140.683Z" fill="black"/>
<path d="M159.702 18.5606C159.702 16.0674 159.702 14.1282 159.702 13.0201L155.227 29.6415H151.031L156.905 8.58772H162.778C162.778 15.2363 163.058 20.2227 163.058 23.27V25.4862C165.016 21.8849 168.372 16.0674 172.847 8.3107H179L173.127 29.3645H169.211L173.966 12.7431C171.728 16.8984 168.652 22.4389 164.456 29.3645H159.981C159.702 26.3172 159.702 22.4389 159.702 18.5606Z" fill="black"/>
<path d="M73.2781 8.31072H45.3094L47.5469 0.277031H75.5156L73.2781 8.31072Z" fill="#D1202F"/>
<path d="M54.2594 22.4389H69.3625L71.6 14.1282H43.911L37.1985 37.6752H50.0641L54.2594 22.4389Z" fill="#D1202F"/>
<path fill-rule="evenodd" clip-rule="evenodd" d="M85.8641 29.0875C85.5844 28.8105 85.3047 28.8105 85.3047 28.2564V27.9794V27.7024L90.3391 9.69583C90.3391 9.14179 90.6188 8.86476 91.1781 8.58774C91.4578 8.31071 92.0172 8.31071 93.1359 8.31071H107.12L109.358 0H89.7797C86.1438 0 83.6266 0.277024 82.2281 1.1081C80.8297 1.93917 79.7109 3.32429 79.1516 5.54048L71.8797 31.3037C71.8797 31.5807 71.8797 32.1348 71.6 32.4118C71.6 32.6888 71.6 33.2429 71.6 33.5199C71.8797 34.628 72.7188 35.7361 74.1172 36.5671C75.5156 37.3982 77.1938 37.6752 78.8719 37.6752H99.2891L101.527 29.3645H86.7031C86.7031 29.3645 86.1438 29.3645 85.8641 29.0875Z" fill="#D1202F"/>
<path fill-rule="evenodd" clip-rule="evenodd" d="M8.95 0.277024L0.279688 31.3037C0 31.8577 0 32.1348 0 32.4118C0 32.6888 0 33.2429 0 33.5199C0.279688 34.628 1.11875 35.7361 2.51719 36.5671C3.91563 37.3982 5.59375 37.6752 7.27188 37.6752H21.8156C25.4516 37.6752 27.9688 37.3982 29.3672 36.5671C30.7656 35.7361 31.8844 34.351 32.4438 32.1348L41.3938 0H28.5281L20.9766 27.9794C20.9766 28.5335 20.6969 28.8105 20.1375 29.0875C19.5781 29.3645 19.2984 29.3645 18.1797 29.3645H15.9422C15.3828 29.3645 15.1031 29.3645 14.8234 29.0875C14.5438 28.8105 14.2641 28.8105 14.2641 28.2564V27.9794V27.7024L21.8156 0H8.95V0.277024Z" fill="#D1202F"/>
<path d="M172.008 33.5199H112.155L111.036 37.6752H170.889L172.008 33.5199Z" fill="#D1202F"/>
<path d="M154.062 69.9487L158.533 47.773L167.502 48.0569L167.063 50.05L159.683 49.7824L157.969 58.9314L163.149 58.9314L162.719 60.55L157.533 60.55L156.314 68.0532L163.406 68.0532L163 69.9487L154.062 69.9487Z" fill="black"/>
<path d="M130.636 70.3915H128.92L138.881 48.2097H140.57L140.531 70.3915H138.816L139.226 51.206H139.121L130.636 70.3915ZM132.269 63.2892H139.183V65.2423H131.269L132.269 63.2892Z" fill="black"/>
<path d="M117.999 47.9043L119.387 48.148L116.305 65.005C116.091 66.2292 115.714 67.2897 115.176 68.1867C114.642 69.0785 113.993 69.7427 113.227 70.1792C112.463 70.6098 111.631 70.7462 110.732 70.5883C109.832 70.4304 109.097 70.0188 108.525 69.3535C107.954 68.6824 107.568 67.8364 107.366 66.8155C107.17 65.7895 107.179 64.6644 107.394 63.4402L110.475 47.5832L111.864 47.827L108.813 63.5091C108.659 64.3835 108.645 65.1833 108.772 65.9086C108.9 66.6281 109.157 67.2231 109.544 67.6936C109.935 68.1589 110.45 68.4476 111.088 68.5597C111.726 68.6717 112.309 68.5757 112.835 68.2715C113.363 67.9616 113.807 67.4898 114.168 66.8562C114.535 66.2174 114.794 65.4608 114.948 64.5864L117.999 47.9043Z" fill="black"/>
</svg>
